<?xml version="1.0" encoding="UTF-8"?>
<!DOCTYPE svg PUBLIC "-//W3C//DTD SVG 1.1//EN" "http://www.w3.org/Graphics/SVG/1.1/DTD/svg11.dtd">
<svg xmlns="http://www.w3.org/2000/svg" version="1.1" width="512px" height="512px" style="shape-rendering:geometricPrecision; text-rendering:geometricPrecision; image-rendering:optimizeQuality; fill-rule:evenodd; clip-rule:evenodd" xmlns:xlink="http://www.w3.org/1999/xlink">
<g><path style="opacity:0.999" fill="#20a5d3" d="M 295.5,24.5 C 286.049,59.3037 277.382,94.3037 269.5,129.5C 252.019,125.467 236.019,128.634 221.5,139C 215.096,145.974 210.929,154.141 209,163.5C 208.333,191.167 208.333,218.833 209,246.5C 211.4,261.037 218.9,271.703 231.5,278.5C 230.414,278.62 229.747,279.287 229.5,280.5C 225.473,297.943 221.139,315.276 216.5,332.5C 144.167,332.5 71.8333,332.5 -0.5,332.5C -0.5,239.833 -0.5,147.167 -0.5,54.5C 4.31735,39.5168 14.3174,29.6835 29.5,25C 118.166,24.5 206.833,24.3333 295.5,24.5 Z"/></g>
<g><path style="opacity:1" fill="#1090b2" d="M 295.5,24.5 C 357.501,24.3333 419.501,24.5 481.5,25C 496.683,29.6835 506.683,39.5168 511.5,54.5C 511.5,147.167 511.5,239.833 511.5,332.5C 413.167,332.5 314.833,332.5 216.5,332.5C 221.139,315.276 225.473,297.943 229.5,280.5C 229.747,279.287 230.414,278.62 231.5,278.5C 250.914,286.16 269.58,284.66 287.5,274C 297.912,263.787 303.079,251.287 303,236.5C 303.907,211.807 303.574,187.14 302,162.5C 298.354,144.354 287.52,133.354 269.5,129.5C 277.382,94.3037 286.049,59.3037 295.5,24.5 Z"/></g>
<g><path style="opacity:1" fill="#fdfefe" d="M 151.5,127.5 C 158.788,126.681 164.288,129.348 168,135.5C 168.667,137.5 168.667,139.5 168,141.5C 155.027,168.779 141.527,195.779 127.5,222.5C 134.803,223.497 142.137,223.831 149.5,223.5C 149.333,212.828 149.5,202.161 150,191.5C 154.878,184.455 161.378,182.621 169.5,186C 172,187.167 173.833,189 175,191.5C 175.5,202.161 175.667,212.828 175.5,223.5C 187.837,222.669 193.004,228.336 191,240.5C 188.066,247.216 182.9,249.883 175.5,248.5C 175.666,257.173 175.5,265.84 175,274.5C 172.52,279.824 168.354,282.157 162.5,281.5C 156.607,282.139 152.441,279.806 150,274.5C 149.5,265.84 149.334,257.173 149.5,248.5C 132.83,248.667 116.163,248.5 99.5,248C 94.1617,244.491 92.3284,239.658 94,233.5C 111,200.167 128,166.833 145,133.5C 147.063,131.266 149.229,129.266 151.5,127.5 Z"/></g>
<g><path style="opacity:1" fill="#fdfefe" d="M 269.5,129.5 C 287.52,133.354 298.354,144.354 302,162.5C 303.574,187.14 303.907,211.807 303,236.5C 303.079,251.287 297.912,263.787 287.5,274C 269.58,284.66 250.914,286.16 231.5,278.5C 218.9,271.703 211.4,261.037 209,246.5C 208.333,218.833 208.333,191.167 209,163.5C 210.929,154.141 215.096,145.974 221.5,139C 236.019,128.634 252.019,125.467 269.5,129.5 Z"/></g>
<g><path style="opacity:1" fill="#fdfefe" d="M 407.5,248.5 C 405.167,248.5 402.833,248.5 400.5,248.5C 400.5,256.5 400.5,264.5 400.5,272.5C 399.048,278.997 394.882,281.997 388,281.5C 381.118,281.997 376.952,278.997 375.5,272.5C 375.5,264.5 375.5,256.5 375.5,248.5C 360.167,248.5 344.833,248.5 329.5,248.5C 319.571,246.225 316.737,240.225 321,230.5C 337.333,198.5 353.667,166.5 370,134.5C 375.576,126.653 382.41,125.487 390.5,131C 393.544,133.912 394.711,137.412 394,141.5C 380.5,168.5 367,195.5 353.5,222.5C 360.468,223.497 367.468,223.83 374.5,223.5C 374.334,213.161 374.5,202.828 375,192.5C 379.451,184.517 385.951,182.351 394.5,186C 396.624,187.122 398.457,188.622 400,190.5C 400.5,201.495 400.667,212.495 400.5,223.5C 414.213,222.941 419.379,229.275 416,242.5C 414.149,245.846 411.316,247.846 407.5,248.5 Z"/></g>
<g><path style="opacity:1" fill="#22a5d2" d="M 263.5,153.5 C 262.883,153.611 262.383,153.944 262,154.5C 254.295,186.32 246.129,217.986 237.5,249.5C 236.4,247.723 235.566,245.723 235,243.5C 234.333,217.833 234.333,192.167 235,166.5C 236.736,159.763 240.903,155.263 247.5,153C 253.016,152.183 258.35,152.349 263.5,153.5 Z"/></g>
<g><path style="opacity:1" fill="#1791b3" d="M 263.5,153.5 C 271.365,155.874 275.865,161.207 277,169.5C 277.962,194.883 277.629,220.216 276,245.5C 273.728,252.106 269.228,256.273 262.5,258C 255.097,259.378 248.097,258.378 241.5,255C 239.561,253.568 238.228,251.735 237.5,249.5C 246.129,217.986 254.295,186.32 262,154.5C 262.383,153.944 262.883,153.611 263.5,153.5 Z"/></g>
<g><path style="opacity:1" fill="#88c7d8" d="M 329.5,248.5 C 344.833,248.5 360.167,248.5 375.5,248.5C 375.5,256.5 375.5,264.5 375.5,272.5C 374.508,265.018 374.175,257.352 374.5,249.5C 359.324,249.829 344.324,249.496 329.5,248.5 Z"/></g>
<g><path style="opacity:1" fill="#82c5d7" d="M 407.5,248.5 C 405.735,249.461 403.735,249.795 401.5,249.5C 401.825,257.352 401.492,265.018 400.5,272.5C 400.5,264.5 400.5,256.5 400.5,248.5C 402.833,248.5 405.167,248.5 407.5,248.5 Z"/></g>
<g><path style="opacity:1" fill="#41444c" d="M -0.5,332.5 C 71.8333,332.5 144.167,332.5 216.5,332.5C 314.833,332.5 413.167,332.5 511.5,332.5C 511.5,344.167 511.5,355.833 511.5,367.5C 507.334,382.609 497.667,392.442 482.5,397C 431.529,398.468 380.529,398.968 329.5,398.5C 280.167,398.5 230.833,398.5 181.5,398.5C 130.471,398.968 79.471,398.468 28.5,397C 13.3325,392.442 3.66584,382.609 -0.5,367.5C -0.5,355.833 -0.5,344.167 -0.5,332.5 Z"/></g>
<g><path style="opacity:1" fill="#2c2e35" d="M 181.5,398.5 C 230.833,398.5 280.167,398.5 329.5,398.5C 334.165,411.495 338.832,424.495 343.5,437.5C 284.833,437.5 226.167,437.5 167.5,437.5C 172.168,424.495 176.835,411.495 181.5,398.5 Z"/></g>
<g><path style="opacity:0.993" fill="#41434b" d="M 167.5,437.5 C 226.167,437.5 284.833,437.5 343.5,437.5C 347.5,448.5 351.5,459.5 355.5,470.5C 288.833,471.833 222.167,471.833 155.5,470.5C 159.5,459.5 163.5,448.5 167.5,437.5 Z"/></g>
<g><path style="opacity:0.953" fill="#2b2e34" d="M 155.5,470.5 C 222.167,471.833 288.833,471.833 355.5,470.5C 376.503,470.333 397.503,470.5 418.5,471C 424.964,472.756 427.13,476.923 425,483.5C 423.833,484.667 422.667,485.833 421.5,487C 310.833,487.667 200.167,487.667 89.5,487C 84.9924,482.947 84.3257,478.28 87.5,473C 89.087,472.138 90.7536,471.471 92.5,471C 113.497,470.5 134.497,470.333 155.5,470.5 Z"/></g>
</svg>
