<?xml version="1.0" encoding="UTF-8"?>
<!DOCTYPE svg PUBLIC "-//W3C//DTD SVG 1.1//EN" "http://www.w3.org/Graphics/SVG/1.1/DTD/svg11.dtd">
<svg xmlns="http://www.w3.org/2000/svg" version="1.1" width="512px" height="512px" style="shape-rendering:geometricPrecision; text-rendering:geometricPrecision; image-rendering:optimizeQuality; fill-rule:evenodd; clip-rule:evenodd" xmlns:xlink="http://www.w3.org/1999/xlink">
<g><path style="opacity:0.977" fill="#000000" d="M 173.5,-0.5 C 186.833,-0.5 200.167,-0.5 213.5,-0.5C 288.164,10.4096 341.331,50.0762 373,118.5C 394.937,176.184 391.937,232.517 364,287.5C 358.948,296.549 353.114,305.049 346.5,313C 400.333,366.833 454.167,420.667 508,474.5C 509.213,476.925 510.379,479.259 511.5,481.5C 511.5,485.833 511.5,490.167 511.5,494.5C 509.963,497.9 508.13,501.233 506,504.5C 502.486,507.5 498.653,509.833 494.5,511.5C 490.167,511.5 485.833,511.5 481.5,511.5C 479.259,510.379 476.925,509.213 474.5,508C 420.667,454.167 366.833,400.333 313,346.5C 265.872,382.265 213.039,394.765 154.5,384C 81.998,366.496 33.1647,322.663 8,252.5C 4.09478,239.594 1.26144,226.594 -0.5,213.5C -0.5,200.167 -0.5,186.833 -0.5,173.5C 7.25014,113.812 35.5835,66.6451 84.5,32C 111.818,14.5074 141.485,3.67407 173.5,-0.5 Z M 184.5,46.5 C 238.63,45.4841 281.797,66.4841 314,109.5C 348.493,164.081 349.16,219.081 316,274.5C 277.844,326.644 226.677,347.477 162.5,337C 102.991,321.491 65.4912,283.991 50,224.5C 39.4329,161.839 59.2662,111.339 109.5,73C 132.221,57.4834 157.221,48.6501 184.5,46.5 Z"/></g>
<g><path style="opacity:0.969" fill="#000000" d="M 187.5,84.5 C 236.952,84.2956 272.452,106.296 294,150.5C 300.343,165.891 303.01,181.891 302,198.5C 296.102,214.532 284.935,220.032 268.5,215C 263.333,212.5 259.5,208.667 257,203.5C 257.185,178.041 247.352,157.541 227.5,142C 213.827,134.463 199.16,130.463 183.5,130C 171.947,123.352 167.781,113.519 171,100.5C 173.752,92.2468 179.252,86.9135 187.5,84.5 Z"/></g>
</svg>
