<?xml version="1.0" encoding="UTF-8"?>
<!DOCTYPE svg PUBLIC "-//W3C//DTD SVG 1.1//EN" "http://www.w3.org/Graphics/SVG/1.1/DTD/svg11.dtd">
<svg xmlns="http://www.w3.org/2000/svg" version="1.1" width="512px" height="512px" style="shape-rendering:geometricPrecision; text-rendering:geometricPrecision; image-rendering:optimizeQuality; fill-rule:evenodd; clip-rule:evenodd" xmlns:xlink="http://www.w3.org/1999/xlink">
<g><path style="opacity:0.98" fill="#020100" d="M 296.5,78.5 C 291.734,79.4489 287.9,78.1155 285,74.5C 277.881,60.5962 271.048,46.5962 264.5,32.5C 264.217,31.7109 263.717,31.0442 263,30.5C 262.333,105.5 262.333,180.5 263,255.5C 263.717,254.956 264.217,254.289 264.5,253.5C 285.901,223.723 307.568,194.057 329.5,164.5C 318.395,142.623 307.561,120.623 297,98.5C 295.882,94.0767 297.049,90.41 300.5,87.5C 304.192,86.9712 307.358,87.9712 310,90.5C 321.117,113.234 332.617,135.734 344.5,158C 395.597,165.109 446.597,172.776 497.5,181C 504.166,184.492 508.832,189.659 511.5,196.5C 511.5,201.167 511.5,205.833 511.5,210.5C 509.774,212.942 508.274,215.609 507,218.5C 470.626,254.375 434.126,290.042 397.5,325.5C 406.488,375.763 415.155,426.096 423.5,476.5C 421.726,491.108 413.559,499.108 399,500.5C 395.254,500.675 391.754,499.842 388.5,498C 344.167,474.833 299.833,451.667 255.5,428.5C 211.167,451.667 166.833,474.833 122.5,498C 107.281,503.484 96.114,498.984 89,484.5C 88.4357,481.845 87.9357,479.179 87.5,476.5C 95.845,426.096 104.512,375.763 113.5,325.5C 76.8744,290.042 40.3744,254.375 4,218.5C 2.39518,215.809 0.895182,213.142 -0.5,210.5C -0.5,205.833 -0.5,201.167 -0.5,196.5C 2.64896,188.519 8.31563,183.019 16.5,180C 66.4704,172.48 116.47,165.147 166.5,158C 189.899,112.816 212.732,67.316 235,21.5C 244.069,10.1097 255.236,7.60967 268.5,14C 270.241,15.6196 272.075,17.1196 274,18.5C 282.589,34.6772 290.922,51.0105 299,67.5C 300.187,71.7831 299.353,75.4497 296.5,78.5 Z"/></g>
<g><path style="opacity:1" fill="#786910" d="M 246.5,253.5 C 247.833,179.833 247.833,106.167 246.5,32.5C 246.783,31.7109 247.283,31.0442 248,30.5C 248.667,105.5 248.667,180.5 248,255.5C 247.283,254.956 246.783,254.289 246.5,253.5 Z"/></g>
<g><path style="opacity:1" fill="#7a550a" d="M 264.5,32.5 C 263.167,106.167 263.167,179.833 264.5,253.5C 264.217,254.289 263.717,254.956 263,255.5C 262.333,180.5 262.333,105.5 263,30.5C 263.717,31.0442 264.217,31.7109 264.5,32.5 Z"/></g>
<g><path style="opacity:1" fill="#f0d221" d="M 246.5,32.5 C 247.833,106.167 247.833,179.833 246.5,253.5C 225.099,223.723 203.432,194.057 181.5,164.5C 203.18,120.474 224.847,76.4735 246.5,32.5 Z"/></g>
<g><path style="opacity:0.999" fill="#f5ab15" d="M 264.5,32.5 C 271.048,46.5962 277.881,60.5962 285,74.5C 287.9,78.1155 291.734,79.4489 296.5,78.5C 297.561,81.6223 298.895,84.6223 300.5,87.5C 297.049,90.41 295.882,94.0767 297,98.5C 307.561,120.623 318.395,142.623 329.5,164.5C 307.568,194.057 285.901,223.723 264.5,253.5C 263.167,179.833 263.167,106.167 264.5,32.5 Z"/></g>
<g><path style="opacity:1" fill="#f4aa15" d="M 90.5,217.5 C 83.5932,209.088 76.0932,201.088 68,193.5C 66.9914,191.975 66.4914,190.308 66.5,188.5C 67.791,188.737 68.791,188.404 69.5,187.5C 100.516,183.197 131.516,178.697 162.5,174C 165.227,173.182 167.894,173.348 170.5,174.5C 192.044,204.422 213.711,234.255 235.5,264C 187.094,249.032 138.76,233.532 90.5,217.5 Z"/></g>
<g><path style="opacity:1" fill="#f0d221" d="M 340.5,173.5 C 389.872,180.339 439.206,187.506 488.5,195C 417.432,218.175 346.432,241.175 275.5,264C 297.553,234.039 319.22,203.873 340.5,173.5 Z"/></g>
<g><path style="opacity:1" fill="#e98518" d="M 69.5,187.5 C 68.791,188.404 67.791,188.737 66.5,188.5C 66.4914,190.308 66.9914,191.975 68,193.5C 76.0932,201.088 83.5932,209.088 90.5,217.5C 67.8089,210.103 45.1423,202.603 22.5,195C 38.0761,192.084 53.7428,189.584 69.5,187.5 Z"/></g>
<g><path style="opacity:1" fill="#edb415" d="M 120.5,243.5 C 127.947,252.468 136.28,261.302 145.5,270C 154.804,278.303 163.804,286.969 172.5,296C 173.448,296.483 174.448,296.649 175.5,296.5C 158.671,302.332 141.671,307.998 124.5,313.5C 88.3775,279.545 52.7108,245.045 17.5,210C 52.0651,220.466 86.3984,231.633 120.5,243.5 Z"/></g>
<g><path style="opacity:1" fill="#f3a915" d="M 490.5,209.5 C 491.552,209.351 492.552,209.517 493.5,210C 461.167,241.667 428.833,273.333 396.5,305C 392.989,307.847 389.489,310.68 386,313.5C 350.822,301.996 315.656,290.496 280.5,279C 350.59,255.914 420.59,232.748 490.5,209.5 Z"/></g>
<g><path style="opacity:1" fill="#f0d221" d="M 120.5,243.5 C 157.376,254.625 194.042,266.458 230.5,279C 212.18,284.94 193.846,290.774 175.5,296.5C 174.448,296.649 173.448,296.483 172.5,296C 163.804,286.969 154.804,278.303 145.5,270C 136.28,261.302 127.947,252.468 120.5,243.5 Z"/></g>
<g><path style="opacity:1" fill="#f3a915" d="M 166.5,388.5 C 165.957,388.44 165.624,388.107 165.5,387.5C 170.205,362.236 174.538,336.903 178.5,311.5C 197.359,304.934 216.359,299.101 235.5,294C 212.613,325.618 189.613,357.118 166.5,388.5 Z"/></g>
<g><path style="opacity:1" fill="#efd121" d="M 305.5,347.5 C 303.242,344.643 301.242,341.643 299.5,338.5C 301.432,335.823 301.932,332.823 301,329.5C 292.868,317.402 284.368,305.569 275.5,294C 311.248,304.971 346.915,316.471 382.5,328.5C 391.429,377.075 399.596,425.741 407,474.5C 377,433.167 347,391.833 317,350.5C 313.898,346.647 310.065,345.647 305.5,347.5 Z"/></g>
<g><path style="opacity:1" fill="#786910" d="M 246.5,303.5 C 246.56,302.957 246.893,302.624 247.5,302.5C 248.83,339.998 248.83,377.331 247.5,414.5C 247.832,377.33 247.498,340.33 246.5,303.5 Z"/></g>
<g><path style="opacity:1" fill="#7a550a" d="M 264.5,303.5 C 263.502,340.33 263.168,377.33 263.5,414.5C 262.17,377.331 262.17,339.998 263.5,302.5C 264.107,302.624 264.44,302.957 264.5,303.5 Z"/></g>
<g><path style="opacity:1" fill="#f0d221" d="M 246.5,303.5 C 247.498,340.33 247.832,377.33 247.5,414.5C 217.332,430.751 186.999,446.751 156.5,462.5C 155.2,460.777 154.533,458.61 154.5,456C 155.718,445.413 157.385,434.913 159.5,424.5C 188.245,384.02 217.245,343.686 246.5,303.5 Z"/></g>
<g><path style="opacity:1" fill="#f5aa15" d="M 264.5,303.5 C 272.562,315.736 281.229,327.569 290.5,339C 293.592,339.736 296.592,339.569 299.5,338.5C 301.242,341.643 303.242,344.643 305.5,347.5C 302.342,350.794 301.842,354.461 304,358.5C 334.167,400 364.333,441.5 394.5,483C 350.635,460.732 306.968,437.899 263.5,414.5C 263.168,377.33 263.502,340.33 264.5,303.5 Z"/></g>
<g><path style="opacity:1" fill="#f08918" d="M 178.5,311.5 C 174.538,336.903 170.205,362.236 165.5,387.5C 165.624,388.107 165.957,388.44 166.5,388.5C 145.498,417.008 124.665,445.675 104,474.5C 111.45,426.132 119.45,377.798 128,329.5C 128.5,328.333 129.333,327.5 130.5,327C 146.549,321.928 162.549,316.761 178.5,311.5 Z"/></g>
<g><path style="opacity:1" fill="#e9b115" d="M 159.5,424.5 C 157.385,434.913 155.718,445.413 154.5,456C 154.533,458.61 155.2,460.777 156.5,462.5C 143.519,470.156 130.186,476.99 116.5,483C 130.697,463.318 145.03,443.818 159.5,424.5 Z"/></g>
</svg>
