<?xml version="1.0" standalone="no"?>
<!DOCTYPE svg PUBLIC "-//W3C//DTD SVG 20010904//EN"
 "http://www.w3.org/TR/2001/REC-SVG-20010904/DTD/svg10.dtd">
<svg version="1.0" xmlns="http://www.w3.org/2000/svg"
 width="512.000000pt" height="512.000000pt" viewBox="0 0 512.000000 512.000000"
 preserveAspectRatio="xMidYMid meet">

<g transform="translate(0.000000,512.000000) scale(0.100000,-0.100000)"
fill="#000000" stroke="none">
<path d="M2520 5000 c-128 -26 -119 -12 -499 -786 -183 -373 -334 -680 -335
-681 0 0 -332 -49 -736 -108 -404 -58 -754 -111 -777 -117 -52 -13 -117 -67
-145 -122 -29 -54 -30 -145 -4 -204 14 -31 158 -177 565 -574 300 -293 547
-540 549 -548 1 -8 -54 -343 -123 -743 -69 -400 -125 -749 -125 -775 1 -123
111 -226 240 -225 60 0 98 19 823 401 l607 320 608 -320 c746 -394 761 -401
829 -400 126 1 233 105 233 226 0 25 -56 373 -125 773 -69 400 -124 735 -123
743 2 8 248 253 547 545 324 317 551 545 562 567 27 54 34 119 18 175 -18 66
-97 145 -159 160 -25 7 -376 60 -780 118 -404 59 -736 108 -736 108 -1 1 -75
153 -166 337 -90 184 -172 341 -182 349 -24 20 -72 18 -96 -4 -38 -35 -27 -67
144 -413 l165 -331 -326 -448 c-179 -246 -327 -450 -329 -452 -2 -2 -4 497 -3
1110 l0 1114 114 -226 c97 -193 118 -228 142 -236 15 -6 38 -7 49 -2 25 9 54
46 54 69 0 9 -56 129 -124 267 -104 208 -131 255 -163 280 -61 47 -128 66
-193 53z m-42 -1874 l-3 -554 -327 449 -326 450 326 661 327 661 3 -557 c1
-306 1 -805 0 -1110z m-458 -181 c173 -239 321 -444 329 -455 13 -19 13 -19
-45 0 -33 10 -511 166 -1064 345 -553 180 -1007 329 -1009 331 -2 2 2 4 10 5
8 0 329 47 714 104 385 56 711 103 725 103 22 1 67 -58 340 -433z m2139 330
c397 -58 724 -105 728 -105 3 0 4 -2 2 -4 -2 -2 -456 -151 -1009 -331 -553
-179 -1031 -335 -1064 -345 -58 -19 -58 -19 -45 0 103 150 647 889 655 889 6
1 336 -46 733 -104z m-2914 -600 c572 -185 1046 -340 1052 -344 7 -4 -227 -84
-519 -179 l-531 -173 -51 49 c-94 90 -911 884 -966 940 -30 30 -48 52 -40 50
8 -3 483 -157 1055 -343z m3640 287 c-161 -157 -916 -892 -961 -934 l-51 -49
-531 173 c-292 95 -529 174 -527 176 5 5 2106 690 2120 691 5 1 -17 -25 -50
-57z m-2555 -824 c-17 -24 -313 -431 -658 -905 -344 -474 -627 -861 -629 -860
-3 3 246 1459 250 1463 5 4 1044 342 1055 343 8 1 1 -16 -18 -41z m968 -129
c290 -94 528 -172 529 -173 4 -4 253 -1460 250 -1463 -2 -1 -203 273 -447 610
-244 337 -457 624 -471 640 -16 16 -38 27 -54 27 -33 0 -75 -41 -75 -73 0 -16
155 -237 453 -648 249 -343 457 -630 462 -638 9 -16 -35 7 -772 394 l-533 280
0 559 c0 308 3 557 6 553 3 -3 63 -84 133 -179 122 -167 128 -173 165 -176 49
-4 76 19 76 65 0 34 -25 72 -222 341 -21 28 -36 52 -33 52 3 0 243 -77 533
-171z m-818 -486 l0 -558 -533 -280 c-743 -391 -780 -409 -771 -393 15 25
1297 1788 1301 1788 1 0 3 -251 3 -557z"/>
</g>
</svg>
