<?xml version="1.0" encoding="UTF-8"?>
<!DOCTYPE svg PUBLIC "-//W3C//DTD SVG 1.1//EN" "http://www.w3.org/Graphics/SVG/1.1/DTD/svg11.dtd">
<svg xmlns="http://www.w3.org/2000/svg" version="1.1" width="512px" height="512px" style="shape-rendering:geometricPrecision; text-rendering:geometricPrecision; image-rendering:optimizeQuality; fill-rule:evenodd; clip-rule:evenodd" xmlns:xlink="http://www.w3.org/1999/xlink">
<g><path style="opacity:0.973" fill="#000000" d="M 256.5,-0.5 C 264.167,-0.5 271.833,-0.5 279.5,-0.5C 368.619,10.2905 435.786,54.2905 481,131.5C 497.765,162.951 507.932,196.285 511.5,231.5C 511.5,239.167 511.5,246.833 511.5,254.5C 495.167,254.5 478.833,254.5 462.5,254.5C 460.72,182.427 430.72,125.594 372.5,84C 337.457,60.5986 298.79,48.7653 256.5,48.5C 256.5,32.1667 256.5,15.8333 256.5,-0.5 Z"/></g>
<g><path style="opacity:0.988" fill="#000000" d="M 375.5,511.5 C 365.5,511.5 355.5,511.5 345.5,511.5C 312.08,506.192 280.413,495.359 250.5,479C 147.319,423.82 70.8187,343.32 21,237.5C 11.0694,214.884 3.90275,191.551 -0.5,167.5C -0.5,156.5 -0.5,145.5 -0.5,134.5C 1.76061,123.575 6.26061,113.575 13,104.5C 28.1667,89.3333 43.3333,74.1667 58.5,59C 74.3455,45.8679 90.6788,45.2012 107.5,57C 130.613,80.1126 153.779,103.279 177,126.5C 188.754,143.311 188.087,159.644 175,175.5C 161,189.5 147,203.5 133,217.5C 132.833,218.667 132.667,219.833 132.5,221C 137.607,235.048 144.441,248.214 153,260.5C 182.67,302.172 218.837,337.005 261.5,365C 270.828,370.247 280.328,375.081 290,379.5C 291.067,378.809 292.234,378.309 293.5,378C 308.862,362.304 324.529,346.971 340.5,332C 355.668,322.821 370.335,323.488 384.5,334C 408.695,357.861 432.528,382.028 456,406.5C 464.932,421.254 464.266,435.588 454,449.5C 437.113,466.387 420.279,483.221 403.5,500C 394.826,505.717 385.493,509.55 375.5,511.5 Z"/></g>
<g><path style="opacity:0.97" fill="#000000" d="M 256.5,89.5 C 324.978,92.2973 374.811,123.964 406,184.5C 415.9,206.77 421.067,230.103 421.5,254.5C 404.833,254.5 388.167,254.5 371.5,254.5C 369.616,205.81 346.949,170.643 303.5,149C 288.491,142.565 272.824,139.398 256.5,139.5C 256.5,122.833 256.5,106.167 256.5,89.5 Z"/></g>
</svg>
